# xmcd
#
# Track frame offsets: 
#        150
#        18470
#        40395
#        58715
#
# Disc length: 1071 seconds
#
# Revision: 0
# Processed by: cddbd v1.5.2PL0 Copyright (c) Steve Scherf et al.
# Submitted via: ExactAudioCopyFreeDBPlugin 1.0
#
DISCID=2f042d04
DTITLE=北宇治カルテット (黒沢ともよ, 朝井彩加, 豊田萌絵, 安済知佳) / Tutti!
DYEAR=2015
DGENRE=Anime
TTITLE0=トゥッティ!
TTITLE1=ベルアップ!
TTITLE2=トゥッティ! (OFF VOCAL)
TTITLE3=ベルアップ! (OFF VOCAL)
EXTD=
EXTT0=
EXTT1=
EXTT2=
EXTT3=
PLAYORDER=
